<svg id="Capa_1" enable-background="new 0 0 512 512" height="512" viewBox="0 0 512 512" width="512" xmlns="http://www.w3.org/2000/svg"><g><g><g><path d="m432.689 224.865v-208.056h-271.636v208.056c0 6.319 5.122 11.442 11.441 11.442h248.753c6.319 0 11.442-5.123 11.442-11.442z" fill="#bed8fb"/><path d="m424.453 16.809v208.056c0 6.319-5.123 11.442-11.441 11.442h67.258c6.319 0 11.441-5.123 11.441-11.442v-208.056z" fill="#9dc6fb"/><path d="m262.877 160.632h-46.118c-5.306 0-9.607-4.301-9.607-9.607v-64.153c0-5.306 4.301-9.607 9.607-9.607h46.118c5.306 0 9.607 4.301 9.607 9.607v64.152c-.001 5.307-4.302 9.608-9.607 9.608z" fill="#fff"/><path d="m179.342 279.114c-.08-.176-.161-.351-.242-.526-5.809-12.518-8.639-26.213-8.645-40.014l-.012-28.957c0-38.261-23.158-71.098-56.214-85.301-36.022 11.903-62.019 45.84-62.019 85.853l-.011 28.204c-.005 13.442-2.761 26.781-8.42 38.974-.079.17-.158.341-.236.512-12.488 27.338 4.794 59.371 34.569 63.463 2.89.397 5.841.602 8.84.602h66.336c24.602-8.932 37.488-37.779 26.054-62.81z" fill="#89808c"/><path d="m241.681 277.859c-.078-.171-.157-.342-.236-.513-5.658-12.193-8.414-25.531-8.42-38.973l-.011-28.204c0-49.929-40.474-90.405-90.402-90.405-11.878 0-23.218 2.295-33.608 6.459 33.284 13.338 56.794 45.895 56.794 83.946l.011 28.204c.005 13.442 2.762 26.78 8.42 38.973.079.171.158.341.236.513 12.488 27.338-4.794 59.371-34.569 63.463-2.89.397-5.841.602-8.84.602h67.216c2.999 0 5.95-.205 8.84-.602 29.775-4.092 47.058-36.125 34.569-63.463z" fill="#756e78"/><g><path d="m450.662 20.704v-10.019c0-5.759-4.668-10.427-10.427-10.427h-289.044c-5.759 0-10.427 4.669-10.427 10.427v10.019c0 5.759 4.668 10.428 10.427 10.428h289.044c5.758-.001 10.427-4.669 10.427-10.428z" fill="#88a8d8"/><path d="m501.573.257h-67.258c5.759 0 10.427 4.669 10.427 10.427v10.019c0 5.759-4.668 10.428-10.427 10.428h67.258c5.759 0 10.427-4.669 10.427-10.428v-10.018c0-5.759-4.668-10.428-10.427-10.428z" fill="#7296d1"/><g><g><g><path d="m448.009 84.987h-134.356c-4.265 0-7.721-3.457-7.721-7.721s3.456-7.721 7.721-7.721h134.356c4.265 0 7.721 3.457 7.721 7.721s-3.456 7.721-7.721 7.721z" fill="#fff"/></g><g><path d="m448.009 126.67h-134.356c-4.265 0-7.721-3.457-7.721-7.721s3.456-7.721 7.721-7.721h134.356c4.265 0 7.721 3.457 7.721 7.721s-3.456 7.721-7.721 7.721z" fill="#fff"/></g><path d="m448.009 69.544h-23.556v15.442h23.556c4.265 0 7.721-3.457 7.721-7.721s-3.456-7.721-7.721-7.721z" fill="#f7f4f7"/><path d="m448.009 111.228h-23.556v15.442h23.556c4.265 0 7.721-3.457 7.721-7.721s-3.456-7.721-7.721-7.721z" fill="#f7f4f7"/><g><path d="m360.391 168.353h-46.739c-4.265 0-7.721-3.457-7.721-7.721s3.456-7.721 7.721-7.721h46.739c4.265 0 7.721 3.457 7.721 7.721s-3.456 7.721-7.721 7.721z" fill="#fff"/></g></g></g><g><path d="m157.421 351.173s-1.642-.708-1.822-.687c-4.262.487-8.594.742-12.986.742-14.672 0-28.687-2.784-41.566-7.831-2.948 1.873-6.263 3.241-9.831 3.928l-9.351 1.8c-47.521 9.145-81.865 50.73-81.865 99.124v44.814c0 10.316 8.363 18.679 18.679 18.679h24.532c.131-4.218 3.636-7.586 7.911-7.476 4.044.103 7.198 3.485 7.49 7.476h142.041c16.587 0 30.033-13.447 30.033-30.034v-33.459c0-45.422-30.257-84.843-73.265-97.076z" fill="#ccf49f"/><path d="m316.93 354.111-23.679-6.693c-4.089-1.156-8.366 1.101-9.72 5.129l-13.986 41.668c-14.502-22.864-38.029-39.673-66.185-45.091-2.107-.406-5.828-1.122-9.352-1.8-3.568-.687-6.883-2.054-9.83-3.927-11.883 4.657-24.734 7.383-38.176 7.776 43.008 12.233 73.265 51.654 73.265 97.076v33.459c0 16.587-13.447 30.034-30.033 30.034h65.958.003 17.853c13.491 0 25.035-9.685 27.381-22.97l22.182-125.607c.71-4.028-1.744-7.941-5.681-9.054z" fill="#b3e59f"/><g><path d="m177.918 337.989c-3.835-4.47-6.247-10.132-6.51-16.321-.018-.424-.027-.849-.027-1.275v-38.485h-57.537v38.484c0 .426-.009.851-.027 1.275-.263 6.189-2.675 11.85-6.51 16.32-2.846 14.73-3.091 29.85-.675 44.655 11.078 4.613 23.228 7.169 35.98 7.169 12.747 0 24.892-2.554 35.967-7.164 2.421-14.805 2.186-29.926-.661-44.658z" fill="#ffddce"/></g><g><g><g><g><g><g><g><path d="m112.171 387.936c10.021 38.109 23.73 58.839 30.441 80.791 6.711-21.952 20.42-42.683 30.441-80.791.92-3.499 1.655-7.032 2.235-10.583-10.061 4.189-21.095 6.51-32.676 6.51-11.581 0-22.615-2.321-32.676-6.51.58 3.551 1.315 7.084 2.235 10.583z" fill="#fff"/></g></g></g></g><g fill="#ffddce"><path d="m211.281 216.643h-15.426v29.446c-.073 4.841-.715 9.542-1.832 14.056h17.258c12.015 0 21.754-9.742 21.75-21.758-.003-12.01-9.74-21.744-21.75-21.744z"/><path d="m89.239 246v-25.374c0-1.358.207-2.663.567-3.9h-15.97c-11.94 0-21.62 9.677-21.624 21.617-.004 11.945 9.679 21.631 21.624 21.631h17.224c-1.109-4.487-1.748-9.161-1.821-13.974z"/></g></g></g></g><path d="m113.457 325.034-31.461 15.68c-5.182 2.583-6.934 9.119-3.738 13.948l5.725 8.648c2.418 3.653 2.069 8.478-.851 11.744l-3.453 3.863c-2.197 2.457-2.989 5.863-2.097 9.036 7.825 27.865 65.03 80.775 65.03 80.775-6.711-21.952-20.42-42.683-30.441-80.791-5.435-20.667-4.907-42.451 1.286-62.903z" fill="#95d6a4"/><path d="m171.768 325.034 31.461 15.68c5.182 2.583 6.934 9.119 3.738 13.948l-5.725 8.648c-2.418 3.653-2.069 8.478.851 11.744l3.453 3.863c2.197 2.457 2.989 5.863 2.097 9.036-7.825 27.865-65.03 80.775-65.03 80.775 6.711-21.952 20.42-42.683 30.441-80.791 5.434-20.667 4.906-42.451-1.286-62.903z" fill="#95d6a4"/><g><g><path d="m318.07 328.832c-.909 0-1.833-.161-2.732-.502-3.988-1.51-5.997-5.967-4.488-9.955l51.687-136.529c1.51-3.988 5.969-5.996 9.955-4.487 3.988 1.51 5.997 5.967 4.487 9.955l-51.687 136.529c-1.169 3.087-4.105 4.989-7.222 4.989z" fill="#c1a0a0"/></g></g><path d="m58.641 511.742v-40.922c0-4.247-3.272-7.968-7.518-8.076-4.357-.112-7.924 3.387-7.924 7.719v41.28z" fill="#b3e59f"/></g></g></g><path d="m142.612 307.026c15.482 0 29.623-5.69 40.482-15.077-.608-4.311-1.83-8.627-3.752-12.835-.08-.176-.161-.351-.242-.526-5.809-12.518-8.639-26.213-8.645-40.014l-.012-28.957c0-11.068-1.941-21.681-5.495-31.522-3.825.877-7.482 2.784-10.545 5.779-14.485 14.162-34.305 22.891-56.163 22.891-1.027 0-2.05-.019-3.069-.057-7.918-.297-14.512 5.995-14.512 13.919v25.373c.512 33.789 28.044 61.026 61.953 61.026z" fill="#ffece4"/><path d="m204.564 212.186c0-3.505-1.32-6.888-3.705-9.456-4.913-5.292-8.979-10.481-12.337-15.374-6.426-9.365-18.405-12.249-28.016-7.729 3.425 9.541 5.291 19.824 5.291 30.543l.011 28.204c.005 13.442 2.762 26.78 8.42 38.973.079.171.158.341.236.513 2.642 5.783 3.938 11.774 4.079 17.668 15.509-11.066 25.711-29.092 26.02-49.527v-33.815z" fill="#ffddce"/></g><path d="m334.639 293.459-1.903-1.855c-4.51-4.396-11.68-4.466-16.276-.159l-13.705 12.845c-3.043 3.043-4.821 6.865-5.355 10.825-.198 1.469-.479 2.926-.951 4.33l-8.534 25.378c1.35-.395 2.821-.43 4.269-.021l23.002 6.501c1.894.535 3.432 1.739 4.421 3.291l1.219-6.9c1.109-6.281 4.129-12.068 8.649-16.569l.057-.057 5.63-5.862c8.578-8.929 8.344-23.105-.523-31.747z" fill="#ffece4"/></g></svg>